<?xml version="1.0" encoding="utf-8"?>
<!-- Generator: Adobe Illustrator 19.2.1, SVG Export Plug-In . SVG Version: 6.00 Build 0)  -->
<svg version="1.1" id="Layer_1" xmlns="http://www.w3.org/2000/svg" xmlns:xlink="http://www.w3.org/1999/xlink" x="0px" y="0px"
	 viewBox="0 0 55 21" style="enable-background:new 0 0 55 21;" xml:space="preserve">
<style type="text/css">
	.st0{fill:#333333;}
</style>
<g>
	<g>
		<rect x="18.7" y="16.8" class="st0" width="36.3" height="0.6"/>
		<path class="st0" d="M18.3,8.6l0.8-1c0.5,0.4,1.1,0.6,1.7,0.6c0.4,0,0.6-0.1,0.6-0.4v0c0-0.2-0.2-0.3-0.9-0.5
			c-1.1-0.3-2-0.6-2-1.6v0c0-1,0.8-1.7,2-1.7c0.9,0,1.6,0.2,2.1,0.7l-0.7,1c-0.5-0.3-1-0.5-1.5-0.5c-0.3,0-0.5,0.1-0.5,0.3v0
			c0,0.2,0.2,0.3,0.9,0.5c1.2,0.3,1.9,0.6,1.9,1.6v0c0,1.1-0.8,1.7-2.1,1.7C19.8,9.4,18.9,9.1,18.3,8.6z"/>
		<path class="st0" d="M23.7,4.1h1.4v5.2h-1.4V4.1z"/>
		<path class="st0" d="M26,6.7L26,6.7C26,5.2,27.2,4,28.8,4c0.9,0,1.6,0.3,2.1,0.8l-0.8,1c-0.4-0.3-0.7-0.5-1.3-0.5
			c-0.7,0-1.3,0.6-1.3,1.4v0c0,0.8,0.6,1.4,1.4,1.4c0.4,0,0.6-0.1,0.8-0.2V7.3h-1V6.3h2.4v2.3c-0.5,0.5-1.3,0.8-2.3,0.8
			C27.2,9.4,26,8.3,26,6.7z"/>
		<path class="st0" d="M32.1,4.1h1.4v1.9h1.8V4.1h1.4v5.2h-1.4v-2h-1.8v2h-1.4V4.1z"/>
		<path class="st0" d="M39,5.4h-1.6V4.1H42v1.3h-1.6v3.9H39V5.4z"/>
		<path class="st0" d="M18.7,10.6h1.5l1.2,2l1.2-2h1.5v5.2h-1.4v-3l-1.3,2h0l-1.3-2v3h-1.4V10.6z"/>
		<path class="st0" d="M27,10.6h1.4l2.2,5.2h-1.5l-0.4-0.9h-2l-0.4,0.9h-1.5L27,10.6z M28.3,13.8l-0.6-1.5l-0.6,1.5H28.3z"/>
		<path class="st0" d="M30.7,13.2L30.7,13.2c0-1.5,1.2-2.7,2.7-2.7c1.1,0,1.7,0.4,2.2,1.1l-1.1,0.8c-0.3-0.4-0.6-0.6-1.1-0.6
			c-0.7,0-1.2,0.6-1.2,1.4v0c0,0.8,0.5,1.4,1.2,1.4c0.5,0,0.9-0.3,1.2-0.6l1.1,0.8c-0.5,0.7-1.2,1.2-2.3,1.2
			C31.9,15.9,30.7,14.8,30.7,13.2z"/>
		<path class="st0" d="M36.4,10.6h1.4v1.9h1.8v-1.9h1.4v5.2h-1.4v-2h-1.8v2h-1.4V10.6z"/>
		<path class="st0" d="M42.2,10.6h1.4v5.2h-1.4V10.6z"/>
		<path class="st0" d="M44.8,10.6h1.3l2.1,2.7v-2.7h1.4v5.2h-1.3L46.2,13v2.8h-1.4V10.6z"/>
		<path class="st0" d="M50.8,10.6H55v1.2h-2.8v0.8h2.5v1.1h-2.5v0.8H55v1.2h-4.2V10.6z"/>
	</g>
	<g>
		<g>
			<path class="st0" d="M9.7,2.4C9.2,2.3,8.7,2.3,8.2,2.3c-2.2,0-4.1,0.8-5.6,2.2h7.7c0.1-0.2,0.1-0.2,0.2-0.4L9.7,2.4z"/>
			<path class="st0" d="M1.9,5.2C1.6,5.6,1.3,6,1.1,6.4c-1.1,1.9-1.3,4-0.9,6l3.9-6.7C4,5.5,3.9,5.4,3.8,5.2H1.9z"/>
			<path class="st0" d="M16,7.7c-0.2-0.4-0.4-0.9-0.6-1.3c-1.1-1.9-2.8-3.2-4.7-3.8l3.9,6.7c0.2,0,0.3,0,0.5,0L16,7.7z"/>
			<path class="st0" d="M16.3,8.7l-3.9,6.7c0.1,0.2,0.1,0.2,0.2,0.4h1.9c0.3-0.4,0.6-0.7,0.8-1.2C16.5,12.7,16.7,10.6,16.3,8.7z"/>
			<polygon class="st0" points="13.9,16.5 13.9,16.5 13.9,16.5 			"/>
			<path class="st0" d="M6.8,18.6c0.5,0.1,0.9,0.1,1.4,0.1c2.2,0,4.1-0.8,5.6-2.2l-7.7,0C6,16.7,6,16.8,5.9,17L6.8,18.6z"/>
			<path class="st0" d="M0.5,13.3c0.2,0.4,0.4,0.9,0.6,1.3c1.1,1.9,2.8,3.2,4.7,3.8L2,11.7c-0.2,0-0.3,0-0.5,0L0.5,13.3z"/>
		</g>
		<path class="st0" d="M12.3,11.4L12,11.2c-0.1-0.1-0.3-0.3-0.3-0.5l0-0.4c0-0.2,0.1-0.4,0.3-0.5l0.3-0.2l0.2-0.2
			C12.4,9,12.2,8.6,12,8.3l-0.3,0l-0.3,0.1c-0.2,0-0.4,0-0.6-0.2l-0.3-0.3c-0.1-0.1-0.2-0.4-0.2-0.6L10.4,7l0-0.3
			c-0.4-0.2-0.7-0.4-1.1-0.5L9.2,6.5L9,6.8C8.9,6.9,8.6,7,8.5,7L8,7C7.8,7,7.6,6.9,7.5,6.8L7.3,6.5L7.2,6.2C6.7,6.4,6.4,6.5,6,6.7
			l0,0.3l0.1,0.3c0,0.2,0,0.4-0.2,0.6L5.6,8.2C5.5,8.3,5.3,8.4,5.1,8.4L4.8,8.3l-0.3,0C4.3,8.6,4.1,9,4,9.4l0.2,0.2l0.3,0.2
			c0.1,0.1,0.3,0.3,0.3,0.5v0.4c0,0.2-0.1,0.4-0.3,0.5l-0.3,0.2L4,11.6c0.1,0.4,0.3,0.8,0.5,1.1l0.3-0.1l0.3-0.1
			c0.2,0,0.4,0,0.6,0.2l0.3,0.3c0.1,0.1,0.2,0.4,0.2,0.6L6.1,14L6,14.3c0.4,0.2,0.7,0.4,1.1,0.5l0.2-0.2l0.2-0.3
			C7.6,14.1,7.9,14,8,14l0.4,0c0.2,0,0.4,0.1,0.5,0.3l0.2,0.3l0.2,0.2c0.4-0.1,0.8-0.3,1.1-0.5L10.4,14l-0.1-0.3
			c0-0.2,0-0.4,0.2-0.6l0.3-0.3c0.1-0.1,0.4-0.2,0.6-0.2l0.3,0.1l0.3,0.1c0.2-0.4,0.4-0.7,0.5-1.1L12.3,11.4z M8.2,12.1
			c-0.9,0-1.6-0.7-1.6-1.6c0-0.9,0.7-1.6,1.6-1.6c0.9,0,1.6,0.7,1.6,1.6C9.9,11.4,9.1,12.1,8.2,12.1z"/>
	</g>
</g>
</svg>
