<?xml version="1.0" encoding="utf-8"?>
<!-- Generator: Adobe Illustrator 19.2.1, SVG Export Plug-In . SVG Version: 6.00 Build 0)  -->
<!DOCTYPE svg PUBLIC "-//W3C//DTD SVG 1.1//EN" "http://www.w3.org/Graphics/SVG/1.1/DTD/svg11.dtd" [
	<!ENTITY st0 "fill:#FFFFFF;">
]>
<svg version="1.1" id="Layer_1" xmlns="http://www.w3.org/2000/svg" xmlns:xlink="http://www.w3.org/1999/xlink" x="0px" y="0px"
	 viewBox="0 0 233 89" style="enable-background:new 0 0 233 89;" xml:space="preserve">
<g>
	<g>
		<g>
			<g>
				<path style="&st0;" d="M70,19.6c-1.2-0.2-2.4-0.3-3.6-0.3c-5.7,0-10.8,2.2-14.6,5.7h20.1c0.3-0.5,0.4-0.6,0.7-1.1L70,19.6z"/>
				<path style="&st0;" d="M49.9,27.1c-0.8,1-1.5,1.9-2.1,3c-2.9,4.9-3.5,10.4-2.4,15.5l10.1-17.4c-0.3-0.5-0.4-0.6-0.7-1.1H49.9z"
					/>
				<path style="&st0;" d="M86.5,33.5c-0.4-1.1-1-2.3-1.5-3.3c-2.8-4.9-7.3-8.2-12.3-9.8l10.1,17.4c0.6,0,0.7,0,1.3,0L86.5,33.5z"/>
				<path style="&st0;" d="M87.3,36.2l-10,17.4c0.3,0.5,0.4,0.6,0.7,1.1h5c0.8-1,1.5-1.9,2.1-3C87.8,46.8,88.5,41.2,87.3,36.2z"/>
				<path style="&st0;" d="M81,56.7L81,56.7L81,56.7z"/>
				<path style="&st0;" d="M62.7,62c1.2,0.2,2.4,0.3,3.6,0.3c5.7,0,10.8-2.2,14.6-5.7H60.8c-0.3,0.5-0.4,0.6-0.7,1.1L62.7,62z"/>
				<path style="&st0;" d="M46.2,48.2c0.4,1.1,1,2.3,1.5,3.3c2.9,4.9,7.3,8.3,12.3,9.8L50,44c-0.6,0-0.7,0-1.3,0L46.2,48.2z"/>
			</g>
			<path style="&st0;" d="M76.8,43.2l-0.7-0.5c-0.4-0.3-0.7-0.9-0.7-1.4v-1.1c0-0.5,0.3-1.1,0.7-1.4l0.7-0.5l0.6-0.4
				c-0.2-1.1-0.7-2-1.3-3L75.4,35l-0.8,0.1c-0.5,0.1-1.1-0.1-1.4-0.5l-0.8-0.8c-0.4-0.4-0.5-1-0.5-1.4l0.1-0.8l0.1-0.7
				c-0.9-0.5-1.9-1-3-1.3l-0.4,0.6L68.2,31c-0.2,0.4-0.9,0.7-1.4,0.7h-1.1c-0.5,0-1.1-0.3-1.4-0.7l-0.5-0.7l-0.4-0.6
				c-1.1,0.3-2,0.7-3,1.3l0.1,0.7l0.1,0.8c0.1,0.5-0.1,1.1-0.5,1.4l-0.7,0.8c-0.4,0.4-1,0.5-1.4,0.5L57.2,35l-0.7-0.1
				c-0.5,0.9-1,1.9-1.3,3l0.6,0.4l0.7,0.5c0.4,0.3,0.7,0.9,0.7,1.4v1.1c0,0.5-0.3,1.1-0.7,1.4l-0.7,0.5l-0.6,0.4
				c0.3,1.1,0.7,2,1.3,3l0.7-0.1l0.8-0.1c0.5-0.1,1.1,0.1,1.4,0.5l0.8,0.8c0.4,0.4,0.5,1,0.5,1.4l0,0.9l-0.1,0.7
				c0.9,0.5,1.9,1,3,1.3l0.4-0.6l0.5-0.7c0.3-0.4,0.9-0.7,1.4-0.7H67c0.5,0,1.1,0.3,1.4,0.7l0.5,0.7l0.4,0.6c1.1-0.3,2.1-0.7,3-1.3
				L72.1,50L72,49.2c-0.1-0.5,0.1-1.1,0.5-1.4l0.8-0.8c0.4-0.4,1-0.5,1.4-0.5l0.8,0.1l0.7,0.1c0.5-0.9,1-1.9,1.3-3L76.8,43.2z
				 M66.4,45.2c-2.4,0-4.3-1.9-4.3-4.3c0-2.4,1.9-4.3,4.3-4.3s4.3,1.9,4.3,4.3C70.7,43.2,68.7,45.2,66.4,45.2z"/>
		</g>
		<g>
			<rect x="93.5" y="56.8" style="&st0;" width="94.7" height="1.5"/>
			<path style="&st0;" d="M92.5,35.2l2.1-2.5c1.4,1.1,2.8,1.6,4.4,1.6c1,0,1.6-0.3,1.6-0.9l0,0c0-0.6-0.4-0.9-2.3-1.3
				c-2.9-0.7-5.1-1.5-5.1-4.2l0,0c0-2.5,2-4.3,5.2-4.3c2.3,0,4.1,0.6,5.6,1.8l-1.9,2.5c-1.2-0.9-2.6-1.3-3.8-1.3
				c-0.9-0.1-1.3,0.3-1.3,0.8l0,0c0,0.6,0.5,0.9,2.4,1.3c3.1,0.7,5,1.7,5,4.2l0,0c0,2.8-2.2,4.4-5.5,4.4
				C96.5,37.5,94.2,36.8,92.5,35.2z"/>
			<path style="&st0;" d="M106.6,23.6h3.8v13.5h-3.8V23.6z"/>
			<path style="&st0;" d="M112.6,30.5L112.6,30.5c0-4,3.1-7.1,7.3-7.1c2.4,0,4.1,0.7,5.5,2l-2.2,2.7c-1-0.8-1.9-1.3-3.3-1.3
				c-2,0-3.5,1.6-3.5,3.7l0,0c0,2.2,1.5,3.8,3.7,3.8c0.9,0,1.6-0.2,2.2-0.6v-1.6h-2.6v-2.7h6.2v6.1c-1.4,1.2-3.4,2.1-5.9,2.1
				C115.7,37.5,112.6,34.6,112.6,30.5z"/>
			<path style="&st0;" d="M128.4,23.6h3.8v5.1h4.8v-5.1h3.8v13.5H137V32h-4.8v5.1h-3.8V23.6z"/>
			<path style="&st0;" d="M146.4,26.9h-4v-3.3h11.9v3.3h-4.1v10.2h-3.8L146.4,26.9L146.4,26.9z"/>
			<path style="&st0;" d="M93.6,40.7h4l3.2,5.2l3.2-5.2h4v13.5h-3.7v-7.8l-3.5,5.3h-0.1l-3.4-5.3v7.8h-3.7V40.7z"/>
			<path style="&st0;" d="M115.2,40.5h3.6l5.8,13.6h-4l-1-2.4h-5.2l-1,2.4h-3.9L115.2,40.5z M118.5,48.8L117,45l-1.5,3.8L118.5,48.8
				L118.5,48.8z"/>
			<path style="&st0;" d="M124.9,47.5L124.9,47.5c0-4,3-7.1,7.1-7.1c2.8,0,4.5,1.2,5.7,2.8l-2.8,2.2c-0.8-0.9-1.7-1.6-3-1.6
				c-1.9,0-3.2,1.6-3.2,3.6l0,0c0,2,1.3,3.6,3.2,3.6c1.4,0,2.2-0.7,3.1-1.6l2.8,2c-1.3,1.8-3,3.1-6,3.1
				C128,54.5,124.9,51.5,124.9,47.5z"/>
			<path style="&st0;" d="M139.7,40.7h3.8v5.1h4.8v-5.1h3.8v13.5h-3.8V49h-4.8v5.1h-3.8V40.7z"/>
			<path style="&st0;" d="M154.9,40.7h3.8v13.5h-3.8V40.7z"/>
			<path style="&st0;" d="M161.5,40.7h3.5l5.6,7.2v-7.2h3.7v13.5H171l-5.8-7.4v7.4h-3.7V40.7z"/>
			<path style="&st0;" d="M177.2,40.7H188v3.2h-7.2V46h6.5v3h-6.5v2h7.3v3.2h-11L177.2,40.7L177.2,40.7z"/>
		</g>
	</g>
	<g>
		<path style="&st0;" d="M94.3,61.5H96v4.9c0,0.5,0.1,0.9,0.2,1.2c0.2,0.4,0.6,0.7,1.3,0.7c0.7,0,1.1-0.2,1.3-0.7
			c0.1-0.2,0.2-0.6,0.2-1.2v-4.9h1.7v4.9c0,0.8-0.1,1.5-0.4,2c-0.5,0.9-1.4,1.3-2.8,1.3s-2.3-0.4-2.8-1.3c-0.3-0.5-0.4-1.1-0.4-2
			L94.3,61.5L94.3,61.5z"/>
		<path style="&st0;" d="M103.4,66.9c0.1,0.4,0.2,0.6,0.3,0.8c0.3,0.3,0.7,0.5,1.4,0.5c0.4,0,0.7,0,1-0.1c0.5-0.2,0.7-0.5,0.7-0.9
			c0-0.3-0.1-0.5-0.3-0.6c-0.2-0.1-0.6-0.3-1.1-0.4l-0.9-0.2c-0.8-0.2-1.4-0.4-1.7-0.6c-0.5-0.4-0.8-0.9-0.8-1.7
			c0-0.7,0.3-1.3,0.8-1.8s1.3-0.7,2.3-0.7c0.8,0,1.6,0.2,2.2,0.7s0.9,1.1,0.9,1.9h-1.6c0-0.5-0.2-0.8-0.6-1c-0.3-0.1-0.6-0.2-1-0.2
			s-0.8,0.1-1,0.3c-0.3,0.2-0.4,0.4-0.4,0.7s0.1,0.5,0.4,0.6c0.2,0.1,0.5,0.2,1.1,0.3l1.4,0.3c0.6,0.1,1.1,0.3,1.4,0.6
			c0.5,0.4,0.7,0.9,0.7,1.6s-0.3,1.3-0.8,1.8c-0.6,0.5-1.3,0.7-2.4,0.7c-1,0-1.9-0.2-2.5-0.7s-0.9-1.1-0.9-1.9
			C102,66.9,103.4,66.9,103.4,66.9z"/>
		<path style="&st0;" d="M115.4,62.9h-4.2v1.7h3.8V66h-3.8v2h4.4v1.4h-6v-7.9h5.8C115.4,61.5,115.4,62.9,115.4,62.9z"/>
		<path style="&st0;" d="M122,61.7c0.3,0.1,0.5,0.3,0.7,0.6c0.2,0.2,0.3,0.4,0.4,0.7c0.1,0.2,0.1,0.5,0.1,0.8c0,0.4-0.1,0.7-0.3,1.1
			c-0.2,0.4-0.5,0.6-0.9,0.8c0.4,0.1,0.6,0.4,0.8,0.6s0.2,0.7,0.2,1.2v0.5c0,0.4,0,0.6,0,0.7c0,0.2,0.1,0.4,0.3,0.5v0.2h-1.8
			c0-0.2-0.1-0.3-0.1-0.4c0-0.2-0.1-0.5-0.1-0.7v-0.7c0-0.5-0.1-0.8-0.3-1c-0.2-0.2-0.5-0.3-0.9-0.3h-1.6v3.1h-1.6v-7.9h3.8
			C121.3,61.5,121.7,61.5,122,61.7z M118.6,62.9v2.1h1.8c0.4,0,0.6,0,0.8-0.1c0.3-0.2,0.5-0.4,0.5-0.9c0-0.5-0.2-0.8-0.5-1
			c-0.2-0.1-0.4-0.1-0.8-0.1H118.6z"/>
		<path style="&st0;" d="M133.2,63.9c-0.1-0.5-0.4-0.9-0.9-1.1c-0.3-0.1-0.6-0.2-0.9-0.2c-0.6,0-1.2,0.2-1.6,0.7
			c-0.4,0.5-0.6,1.2-0.6,2.2s0.2,1.7,0.7,2.1c0.4,0.4,0.9,0.6,1.5,0.6s1-0.2,1.4-0.5c0.4-0.3,0.6-0.7,0.7-1.3h-1.8v-1.3h3.3v4.2
			h-1.1l-0.2-1c-0.3,0.4-0.6,0.6-0.9,0.8c-0.4,0.3-1,0.4-1.6,0.4c-1,0-1.9-0.4-2.6-1.1c-0.7-0.7-1-1.7-1-3c0-1.3,0.4-2.3,1.1-3.1
			c0.7-0.8,1.6-1.2,2.8-1.2c1,0,1.8,0.3,2.4,0.8c0.6,0.5,1,1.1,1,1.9L133.2,63.9L133.2,63.9z"/>
		<path style="&st0;" d="M138,69.3h-1.6v-7.9h1.6V69.3z"/>
		<path style="&st0;" d="M139.5,61.5h1.7v4.9c0,0.5,0.1,0.9,0.2,1.2c0.2,0.4,0.6,0.7,1.3,0.7s1.1-0.2,1.3-0.7
			c0.1-0.2,0.2-0.6,0.2-1.2v-4.9h1.7v4.9c0,0.8-0.1,1.5-0.4,2c-0.5,0.9-1.4,1.3-2.8,1.3s-2.3-0.4-2.8-1.3c-0.3-0.5-0.4-1.1-0.4-2
			V61.5z"/>
		<path style="&st0;" d="M152.1,61.5c0.6,0.2,1,0.5,1.3,1c0.3,0.4,0.5,0.8,0.6,1.3s0.2,0.9,0.2,1.3c0,1.1-0.2,1.9-0.6,2.7
			c-0.6,1-1.5,1.5-2.7,1.5h-3.4v-7.9h3.4C151.4,61.5,151.8,61.5,152.1,61.5z M149.1,62.9v5.1h1.5c0.8,0,1.3-0.4,1.6-1.2
			c0.2-0.4,0.3-0.9,0.3-1.5c0-0.8-0.1-1.4-0.4-1.9s-0.8-0.6-1.5-0.6h-1.5V62.9z"/>
		<path style="&st0;" d="M161.3,62.9h-4.2v1.7h3.8V66h-3.8v2h4.4v1.4h-6v-7.9h5.8V62.9z"/>
	</g>
</g>
</svg>
