<?xml version="1.0" encoding="utf-8"?>
<!-- Generator: Adobe Illustrator 19.1.0, SVG Export Plug-In . SVG Version: 6.00 Build 0)  -->
<svg version="1.1" id="Layer_1" xmlns="http://www.w3.org/2000/svg" xmlns:xlink="http://www.w3.org/1999/xlink" x="0px" y="0px"
	 viewBox="0 0 144 43.2" style="enable-background:new 0 0 144 43.2;" xml:space="preserve">
<style type="text/css">
	.st0{fill:#FFFFFF;}
</style>
<g>
	<g>
		<g>
			<path class="st0" d="M25.2,0.3C24.1,0.1,22.9,0,21.6,0C15.9,0,10.8,2.2,6.9,5.7h20.2c0.3-0.5,0.4-0.6,0.7-1.1L25.2,0.3z"/>
			<path class="st0" d="M5,7.8c-0.8,1-1.5,1.9-2.1,3c-2.9,5-3.5,10.5-2.4,15.6L10.6,8.9c-0.3-0.5-0.4-0.6-0.7-1.1L5,7.8z"/>
			<path class="st0" d="M41.8,14.1c-0.4-1.1-1-2.3-1.6-3.4C37.5,5.9,33,2.5,27.9,1l10.1,17.5c0.6,0,0.7,0,1.3,0L41.8,14.1z"/>
			<path class="st0" d="M42.6,16.8L32.6,34.3c0.3,0.5,0.4,0.6,0.7,1.1h5c0.8-1,1.5-1.9,2.1-3C43.1,27.5,43.8,21.9,42.6,16.8z"/>
			<path class="st0" d="M36.3,37.4L36.3,37.4L36.3,37.4z"/>
			<path class="st0" d="M17.9,42.9c1.2,0.2,2.4,0.3,3.7,0.3c5.7,0,10.8-2.2,14.7-5.7H16c-0.3,0.5-0.4,0.6-0.7,1.1L17.9,42.9z"/>
			<path class="st0" d="M1.3,29c0.4,1.1,1,2.3,1.6,3.4c2.9,4.9,7.3,8.3,12.3,9.9L5.1,24.7c-0.6,0-0.7,0-1.3,0L1.3,29z"/>
		</g>
		<path class="st0" d="M32.1,24l-0.7-0.5c-0.4-0.3-0.7-0.9-0.7-1.4V21c0-0.5,0.3-1.1,0.7-1.4l0.7-0.5l0.6-0.4c-0.2-1.1-0.7-2-1.3-3
			l-0.7,0.1L29.9,16c-0.5,0.1-1.1-0.1-1.4-0.5l-0.8-0.8c-0.4-0.4-0.5-1-0.5-1.4l0.1-0.8l0.1-0.7c-0.9-0.5-1.9-1-3-1.3L24,11.1
			l-0.5,0.7c-0.2,0.4-0.9,0.7-1.4,0.7H21c-0.5,0-1.1-0.3-1.4-0.7l-0.5-0.7l-0.4-0.6c-1.1,0.3-2,0.7-3,1.3l0.1,0.7l0.1,0.8
			c0.1,0.5-0.1,1.1-0.5,1.4l-0.7,0.8c-0.4,0.4-1,0.5-1.4,0.5l-0.8-0.2l-0.7-0.1c-0.5,0.9-1,1.9-1.3,3l0.6,0.4l0.7,0.5
			c0.4,0.3,0.7,0.9,0.7,1.4v1.1c0,0.5-0.3,1.1-0.7,1.4L11.1,24l-0.6,0.4c0.3,1.1,0.7,2,1.3,3l0.7-0.1l0.8-0.1
			c0.5-0.1,1.1,0.1,1.4,0.5l0.8,0.8c0.4,0.4,0.5,1,0.5,1.4l-0.1,0.8l-0.1,0.7c0.9,0.5,1.9,1,3,1.3l0.4-0.6l0.5-0.7
			c0.3-0.4,0.9-0.7,1.4-0.7h1.1c0.5,0,1.1,0.3,1.4,0.7l0.5,0.7l0.4,0.6c1.1-0.3,2.1-0.7,3-1.3l-0.1-0.7l-0.1-0.8
			c-0.1-0.5,0.1-1.1,0.5-1.4l0.8-0.8c0.4-0.4,1-0.5,1.4-0.5l0.8,0.1l0.7,0.1c0.5-0.9,1-1.9,1.3-3L32.1,24z M21.6,25.9
			c-2.3,0-4.3-1.9-4.3-4.3c0-2.3,1.9-4.3,4.3-4.3c2.3,0,4.3,1.9,4.3,4.3C25.8,23.9,23.9,25.9,21.6,25.9z"/>
	</g>
	<g>
		<path class="st0" d="M47.9,13.8l2.1-2.5c1.4,1.1,2.8,1.6,4.4,1.6c1,0,1.6-0.4,1.6-1v0c0-0.6-0.4-0.9-2.3-1.3
			c-2.9-0.7-5.1-1.5-5.1-4.2V6.3c0-2.5,2-4.4,5.3-4.4c2.3,0,4.1,0.6,5.6,1.8l-1.9,2.6c-1.3-0.9-2.6-1.3-3.8-1.3
			c-0.9,0-1.4,0.4-1.4,0.9V6c0,0.6,0.5,0.9,2.4,1.3c3.1,0.7,5,1.7,5,4.2v0.1c0,2.8-2.2,4.4-5.5,4.4C51.9,16,49.6,15.3,47.9,13.8z"/>
		<path class="st0" d="M62.1,2.2h3.8v13.6h-3.8V2.2z"/>
		<path class="st0" d="M68,9L68,9c0-4,3.1-7.1,7.3-7.1c2.4,0,4.1,0.7,5.5,2l-2.2,2.7c-1-0.8-1.9-1.3-3.3-1.3c-2,0-3.5,1.6-3.5,3.7
			v0.1c0,2.2,1.6,3.8,3.7,3.8c1,0,1.6-0.2,2.2-0.5v-1.7h-2.6V7.9h6.3V14c-1.4,1.2-3.4,2.1-5.9,2.1C71.2,16.1,68,13.2,68,9z"/>
		<path class="st0" d="M84,2.2h3.8v5.1h4.8V2.2h3.8v13.6h-3.8v-5.1h-4.8v5.1H84V2.2z"/>
		<path class="st0" d="M102,5.5H98V2.2h11.9v3.3h-4.1v10.3H102L102,5.5L102,5.5z"/>
	</g>
	<g>
		<path class="st0" d="M49,19.2h4l3.2,5.3l3.2-5.3h4v13.6h-3.8V25l-3.5,5.3h-0.1L52.7,25v7.8H49L49,19.2z"/>
		<path class="st0" d="M70.7,19.2h3.7l5.8,13.7h-4.1l-1-2.5h-5.3l-1,2.5h-4L70.7,19.2z M74,27.5l-1.5-3.8l-1.6,3.8H74z"/>
		<path class="st0" d="M80.4,26L80.4,26c0-4,3.1-7.1,7.1-7.1c2.8,0,4.5,1.1,5.7,2.8l-2.8,2.2c-0.8-1-1.7-1.6-3-1.6
			c-1.9,0-3.2,1.6-3.2,3.6V26c0,2,1.3,3.7,3.2,3.7c1.4,0,2.3-0.7,3.1-1.7l2.8,2c-1.3,1.8-3,3.1-6,3.1C83.5,33.1,80.4,30.1,80.4,26z"
			/>
		<path class="st0" d="M95.3,19.2H99v5.1h4.8v-5.1h3.8v13.6h-3.8v-5.1H99v5.1h-3.8V19.2z"/>
		<path class="st0" d="M110.5,19.2h3.8v13.6h-3.8V19.2z"/>
		<path class="st0" d="M117.2,19.2h3.5l5.6,7.2v-7.2h3.7v13.6h-3.3l-5.8-7.5v7.5h-3.7V19.2z"/>
		<path class="st0" d="M132.9,19.2h11v3.2h-7.2v2.1h6.5v3h-6.5v2.2h7.3v3.2h-11L132.9,19.2L132.9,19.2z"/>
	</g>
	<g>
		<path class="st0" d="M49,35.6H50l1.6,2.8l1.6-2.8h1.1v6.2h-1v-4.4l-1.6,2.9l0,0L50,37.5v4.4h-1L49,35.6L49,35.6z"/>
		<path class="st0" d="M55.4,40.5L55.4,40.5c0-1.1,0.7-1.6,1.7-1.6c0.4,0,0.8,0.1,1.1,0.2v-0.2c0-0.6-0.4-1-1-1
			c-0.5,0-0.8,0.1-1.1,0.3l-0.3-0.8c0.5-0.2,0.9-0.4,1.6-0.4c0.6,0,1.1,0.2,1.4,0.5c0.3,0.3,0.5,0.8,0.5,1.4v2.9h-1v-0.6
			c-0.3,0.4-0.7,0.7-1.3,0.7C56,41.9,55.4,41.4,55.4,40.5z M58.1,40.2v-0.5c-0.2-0.1-0.5-0.2-0.8-0.2c-0.6,0-0.9,0.3-0.9,0.8l0,0
			c0,0.5,0.3,0.7,0.8,0.7C57.7,41.1,58.1,40.8,58.1,40.2z"/>
		<path class="st0" d="M60.3,37.1h1v0.7c0.2-0.4,0.7-0.8,1.3-0.8c0.9,0,1.4,0.7,1.4,1.6v3.1h-1v-2.9c0-0.7-0.3-1-0.8-1
			s-0.9,0.4-0.9,1v2.8h-1L60.3,37.1L60.3,37.1z"/>
		<path class="st0" d="M65.2,40.3v-3.2h1V40c0,0.7,0.3,1,0.8,1s0.9-0.4,0.9-1v-2.9h1v4.7h-1v-0.7c-0.2,0.4-0.7,0.8-1.3,0.8
			C65.8,41.9,65.2,41.2,65.2,40.3z"/>
		<path class="st0" d="M70.4,38h-0.5v-0.8h0.5v-0.4c0-0.5,0.1-0.8,0.4-1.1c0.2-0.2,0.5-0.4,1-0.4c0.3,0,0.5,0.1,0.7,0.1v0.8
			c-0.2-0.1-0.3-0.1-0.5-0.1c-0.4,0-0.5,0.2-0.5,0.7v0.2h1V38h-1v3.8h-1V38z"/>
		<path class="st0" d="M73,40.5L73,40.5c0-1.1,0.7-1.6,1.7-1.6c0.4,0,0.8,0.1,1.1,0.2v-0.2c0-0.6-0.4-1-1-1c-0.5,0-0.8,0.1-1.1,0.3
			l-0.3-0.8c0.5-0.2,0.9-0.4,1.6-0.4c0.6,0,1.1,0.2,1.4,0.5c0.3,0.3,0.5,0.8,0.5,1.4v2.9h-1v-0.6c-0.3,0.4-0.7,0.7-1.3,0.7
			C73.6,41.9,73,41.4,73,40.5z M75.6,40.2v-0.5c-0.2-0.1-0.5-0.2-0.8-0.2c-0.6,0-0.9,0.3-0.9,0.8l0,0c0,0.5,0.3,0.7,0.8,0.7
			C75.2,41.1,75.6,40.8,75.6,40.2z"/>
		<path class="st0" d="M77.6,39.5L77.6,39.5c0-1.4,0.9-2.5,2.2-2.5c0.7,0,1.1,0.2,1.5,0.7l-0.5,0.7c-0.2-0.2-0.5-0.5-1-0.5
			c-0.7,0-1.1,0.6-1.1,1.5v0.1c0,0.9,0.5,1.5,1.1,1.5c0.4,0,0.7-0.2,1-0.5l0.5,0.7c-0.4,0.4-0.8,0.7-1.6,0.7
			C78.5,41.9,77.6,40.9,77.6,39.5z"/>
		<path class="st0" d="M82.5,40.6v-2.7H82v-0.8h0.5v-1.3h1v1.3h1.1v0.8h-1.1v2.5c0,0.4,0.2,0.5,0.5,0.5c0.2,0,0.4-0.1,0.5-0.1v0.8
			c-0.2,0.1-0.5,0.2-0.8,0.2C83,41.8,82.5,41.6,82.5,40.6z"/>
		<path class="st0" d="M85.5,40.3v-3.2h1V40c0,0.7,0.3,1,0.8,1s0.9-0.4,0.9-1v-2.9h1v4.7h-1v-0.7c-0.2,0.4-0.7,0.8-1.3,0.8
			C85.9,41.9,85.5,41.2,85.5,40.3z"/>
		<path class="st0" d="M90.4,37.1h1V38c0.2-0.6,0.7-1,1.4-1v1.1h-0.1c-0.8,0-1.4,0.5-1.4,1.6v2h-1L90.4,37.1L90.4,37.1z"/>
		<path class="st0" d="M93.7,35.5h1.1v1h-1.1V35.5z M93.7,37.1h1v4.7h-1V37.1z"/>
		<path class="st0" d="M96,37.1h1v0.7c0.2-0.4,0.7-0.8,1.3-0.8c0.9,0,1.4,0.7,1.4,1.6v3.1h-1v-2.9c0-0.7-0.3-1-0.8-1s-0.9,0.4-0.9,1
			v2.8h-1L96,37.1L96,37.1z"/>
		<path class="st0" d="M100.9,42.7l0.3-0.8c0.4,0.2,0.9,0.4,1.4,0.4c0.8,0,1.3-0.4,1.3-1.3v-0.5c-0.3,0.5-0.7,0.8-1.4,0.8
			c-1,0-1.8-0.8-1.8-2.2v-0.1c0-1.4,0.8-2.2,1.8-2.2c0.7,0,1.1,0.4,1.4,0.8v-0.7h1V41c0,0.7-0.2,1.2-0.5,1.6c-0.4,0.4-1,0.5-1.7,0.5
			C102,43.2,101.4,43,100.9,42.7z M103.9,39.3L103.9,39.3c0-0.8-0.5-1.4-1.1-1.4c-0.6,0-1.1,0.5-1.1,1.3l0,0c0,0.8,0.5,1.3,1.1,1.3
			C103.4,40.6,103.9,40,103.9,39.3z"/>
		<path class="st0" d="M110.2,35.6h1l2.3,6.2h-1.1l-0.5-1.4h-2.4l-0.5,1.4h-1L110.2,35.6z M111.6,39.4l-0.9-2.5l-0.9,2.5H111.6z"/>
		<path class="st0" d="M114.4,37.1h1v0.7c0.2-0.4,0.7-0.8,1.3-0.8c0.9,0,1.4,0.7,1.4,1.6v3.1h-1v-2.9c0-0.7-0.3-1-0.8-1
			c-0.5,0-0.9,0.4-0.9,1v2.8h-1L114.4,37.1L114.4,37.1z"/>
		<path class="st0" d="M119,40.5L119,40.5c0-1.1,0.7-1.6,1.7-1.6c0.4,0,0.8,0.1,1.1,0.2v-0.2c0-0.6-0.4-1-1-1
			c-0.5,0-0.8,0.1-1.1,0.3l-0.3-0.8c0.5-0.2,0.9-0.4,1.6-0.4c0.6,0,1.1,0.2,1.4,0.5c0.3,0.3,0.5,0.8,0.5,1.4v2.9h-1v-0.6
			c-0.3,0.4-0.7,0.7-1.3,0.7C119.7,41.9,119,41.4,119,40.5z M121.8,40.2v-0.5c-0.2-0.1-0.5-0.2-0.8-0.2c-0.6,0-0.9,0.3-0.9,0.8l0,0
			c0,0.5,0.3,0.7,0.8,0.7C121.3,41.1,121.8,40.8,121.8,40.2z"/>
		<path class="st0" d="M124,35.4h1v6.3h-1V35.4z"/>
		<path class="st0" d="M129,37.1h1l-1.6,4.7c-0.3,1-0.7,1.3-1.4,1.3c-0.4,0-0.7-0.1-1-0.2l0.3-0.8c0.2,0.1,0.4,0.2,0.5,0.2
			c0.2,0,0.4-0.1,0.5-0.5l-1.7-4.7h1.1l1.1,3.4L129,37.1z"/>
		<path class="st0" d="M131.3,40.6v-2.7h-0.5v-0.8h0.5v-1.3h1v1.3h1.1v0.8h-1.1v2.5c0,0.4,0.2,0.5,0.5,0.5c0.2,0,0.4-0.1,0.5-0.1
			v0.8c-0.2,0.1-0.5,0.2-0.8,0.2C131.8,41.8,131.3,41.6,131.3,40.6z"/>
		<path class="st0" d="M134.2,35.5h1.1v1h-1.1V35.5z M134.3,37.1h1v4.7h-1V37.1z"/>
		<path class="st0" d="M136.3,39.5L136.3,39.5c0-1.4,0.9-2.5,2.2-2.5c0.7,0,1.1,0.2,1.5,0.7l-0.5,0.7c-0.2-0.2-0.5-0.5-1-0.5
			c-0.7,0-1.1,0.6-1.1,1.5v0.1c0,0.9,0.5,1.5,1.1,1.5c0.4,0,0.7-0.2,1-0.5l0.5,0.7c-0.4,0.4-0.8,0.7-1.6,0.7
			C137.2,41.9,136.3,40.9,136.3,39.5z"/>
		<path class="st0" d="M140.6,41.2l0.5-0.7c0.4,0.4,0.9,0.5,1.3,0.5c0.4,0,0.7-0.2,0.7-0.5l0,0c0-0.4-0.4-0.5-0.9-0.7
			c-0.7-0.3-1.3-0.6-1.3-1.4l0,0c0-0.8,0.7-1.4,1.6-1.4c0.5,0,1.1,0.2,1.5,0.5l-0.4,0.7c-0.4-0.2-0.7-0.4-1.1-0.4
			c-0.4,0-0.6,0.2-0.6,0.5l0,0c0,0.3,0.4,0.5,0.9,0.7c0.7,0.3,1.3,0.7,1.3,1.4l0,0c0,0.9-0.7,1.4-1.6,1.4
			C141.8,41.9,141.2,41.7,140.6,41.2z"/>
	</g>
</g>
</svg>
